ISO-10303-21;
HEADER;
FILE_DESCRIPTION(('FreeCAD Model'),'2;1');
FILE_NAME('Open CASCADE Shape Model','2025-10-16T17:03:10',('Author'),(
    ''),'Open CASCADE STEP processor 7.8','FreeCAD','Unknown');
FILE_SCHEMA(('AUTOMOTIVE_DESIGN { 1 0 10303 214 1 1 1 1 }'));
ENDSEC;
DATA;
#1 = APPLICATION_PROTOCOL_DEFINITION('international standard',
  'automotive_design',2000,#2);
#2 = APPLICATION_CONTEXT(
  'core data for automotive mechanical design processes');
#3 = SHAPE_DEFINITION_REPRESENTATION(#4,#10);
#4 = PRODUCT_DEFINITION_SHAPE('','',#5);
#5 = PRODUCT_DEFINITION('design','',#6,#9);
#6 = PRODUCT_DEFINITION_FORMATION('','',#7);
#7 = PRODUCT('Body','Body','',(#8));
#8 = PRODUCT_CONTEXT('',#2,'mechanical');
#9 = PRODUCT_DEFINITION_CONTEXT('part definition',#2,'design');
#10 = ADVANCED_BREP_SHAPE_REPRESENTATION('',(#11,#15),#361);
#11 = AXIS2_PLACEMENT_3D('',#12,#13,#14);
#12 = CARTESIAN_POINT('',(0.,0.,0.));
#13 = DIRECTION('',(0.,0.,1.));
#14 = DIRECTION('',(1.,0.,-0.));
#15 = MANIFOLD_SOLID_BREP('',#16);
#16 = CLOSED_SHELL('',(#17,#34,#178,#198,#223,#248,#257,#277,#302,#327,
    #352));
#17 = ADVANCED_FACE('',(#18),#29,.T.);
#18 = FACE_BOUND('',#19,.F.);
#19 = EDGE_LOOP('',(#20));
#20 = ORIENTED_EDGE('',*,*,#21,.F.);
#21 = EDGE_CURVE('',#22,#22,#24,.T.);
#22 = VERTEX_POINT('',#23);
#23 = CARTESIAN_POINT('',(4.475,0.,0.));
#24 = CIRCLE('',#25,4.475);
#25 = AXIS2_PLACEMENT_3D('',#26,#27,#28);
#26 = CARTESIAN_POINT('',(0.,0.,0.));
#27 = DIRECTION('',(0.,-1.,0.));
#28 = DIRECTION('',(1.,0.,0.));
#29 = PLANE('',#30);
#30 = AXIS2_PLACEMENT_3D('',#31,#32,#33);
#31 = CARTESIAN_POINT('',(0.,0.,0.));
#32 = DIRECTION('',(-0.,-1.,-0.));
#33 = DIRECTION('',(1.,0.,0.));
#34 = ADVANCED_FACE('',(#35,#54),#173,.T.);
#35 = FACE_BOUND('',#36,.F.);
#36 = EDGE_LOOP('',(#37,#45,#46,#47));
#37 = ORIENTED_EDGE('',*,*,#38,.F.);
#38 = EDGE_CURVE('',#22,#39,#41,.T.);
#39 = VERTEX_POINT('',#40);
#40 = CARTESIAN_POINT('',(4.475,114.57903612464,0.));
#41 = LINE('',#42,#43);
#42 = CARTESIAN_POINT('',(4.475,0.,0.));
#43 = VECTOR('',#44,1.);
#44 = DIRECTION('',(0.,1.,0.));
#45 = ORIENTED_EDGE('',*,*,#21,.T.);
#46 = ORIENTED_EDGE('',*,*,#38,.T.);
#47 = ORIENTED_EDGE('',*,*,#48,.F.);
#48 = EDGE_CURVE('',#39,#39,#49,.T.);
#49 = CIRCLE('',#50,4.475);
#50 = AXIS2_PLACEMENT_3D('',#51,#52,#53);
#51 = CARTESIAN_POINT('',(0.,114.57903612464,0.));
#52 = DIRECTION('',(0.,-1.,0.));
#53 = DIRECTION('',(1.,0.,0.));
#54 = FACE_BOUND('',#55,.F.);
#55 = EDGE_LOOP('',(#56));
#56 = ORIENTED_EDGE('',*,*,#57,.T.);
#57 = EDGE_CURVE('',#58,#58,#60,.T.);
#58 = VERTEX_POINT('',#59);
#59 = CARTESIAN_POINT('',(-4.475,77.039518062323,-9.264780128681E-17));
#60 = B_SPLINE_CURVE_WITH_KNOTS('',6,(#61,#62,#63,#64,#65,#66,#67,#68,
    #69,#70,#71,#72,#73,#74,#75,#76,#77,#78,#79,#80,#81,#82,#83,#84,#85,
    #86,#87,#88,#89,#90,#91,#92,#93,#94,#95,#96,#97,#98,#99,#100,#101,
    #102,#103,#104,#105,#106,#107,#108,#109,#110,#111,#112,#113,#114,
    #115,#116,#117,#118,#119,#120,#121,#122,#123,#124,#125,#126,#127,
    #128,#129,#130,#131,#132,#133,#134,#135,#136,#137,#138,#139,#140,
    #141,#142,#143,#144,#145,#146,#147,#148,#149,#150,#151,#152,#153,
    #154,#155,#156,#157,#158,#159,#160,#161,#162,#163,#164,#165,#166,
    #167,#168,#169,#170,#171,#172),.UNSPECIFIED.,.T.,.F.,(7,5,5,5,5,5,5,
    5,5,5,5,5,5,5,5,5,5,5,5,5,5,5,7),(0.,6.030032383622E-02,
    8.709106535986E-02,0.12220838027,0.164806980554,0.20518493293,
    0.249448849217,0.293973825455,0.334197120515,0.411092692797,
    0.46068691006,0.499037868933,0.559581076214,0.586479728063,
    0.621738491873,0.664508674897,0.705049265473,0.749491472221,
    0.794195790441,0.834581100757,0.911786400423,0.939437105136,1.),
  .UNSPECIFIED.);
#61 = CARTESIAN_POINT('',(-4.475,77.039518062323,0.));
#62 = CARTESIAN_POINT('',(-4.475,77.039518062323,0.171196611636));
#63 = CARTESIAN_POINT('',(-4.467140682222,77.055149221113,0.341160354903
    ));
#64 = CARTESIAN_POINT('',(-4.45163506776,77.085988916778,0.507251181971)
  );
#65 = CARTESIAN_POINT('',(-4.429394688425,77.130829104172,0.666907149741
    ));
#66 = CARTESIAN_POINT('',(-4.401979620595,77.187683630727,0.817802446914
    ));
#67 = CARTESIAN_POINT('',(-4.357601793476,77.282968491063,1.020293082392
    ));
#68 = CARTESIAN_POINT('',(-4.343243817517,77.314193443498,1.080713230757
    ));
#69 = CARTESIAN_POINT('',(-4.328293378745,77.347189790609,1.139244875475
    ));
#70 = CARTESIAN_POINT('',(-4.312861257977,77.381823530049,1.195875821632
    ));
#71 = CARTESIAN_POINT('',(-4.29705391793,77.417968485691,1.250600250098)
  );
#72 = CARTESIAN_POINT('',(-4.259893013108,77.504709900723,1.372652250411
    ));
#73 = CARTESIAN_POINT('',(-4.238338669441,77.556315534458,1.438623691595
    ));
#74 = CARTESIAN_POINT('',(-4.216522476972,77.610091563632,1.501378161336
    ));
#75 = CARTESIAN_POINT('',(-4.194640082467,77.665838205361,1.560964425579
    ));
#76 = CARTESIAN_POINT('',(-4.172870526502,77.723386673278,1.617433284828
    ));
#77 = CARTESIAN_POINT('',(-4.125304514471,77.854425173482,1.735616280585
    ));
#78 = CARTESIAN_POINT('',(-4.09963422522,77.928710459667,1.795895001573)
  );
#79 = CARTESIAN_POINT('',(-4.07466339714,78.005195065355,1.85174662362)
  );
#80 = CARTESIAN_POINT('',(-4.050663888772,78.083658778396,1.903233401159
    ));
#81 = CARTESIAN_POINT('',(-4.027883176223,78.163919460911,1.950404292389
    ));
#82 = CARTESIAN_POINT('',(-3.986319947475,78.323474078589,2.033946913037
    ));
#83 = CARTESIAN_POINT('',(-3.967390413916,78.402602275248,2.07075427554)
  );
#84 = CARTESIAN_POINT('',(-3.949962467243,78.483037872915,2.10371442476)
  );
#85 = CARTESIAN_POINT('',(-3.934219332821,78.564616325478,2.132826001248
    ));
#86 = CARTESIAN_POINT('',(-3.920318560181,78.647186519599,2.15808419169)
  );
#87 = CARTESIAN_POINT('',(-3.895310907676,78.822062634348,2.202929632908
    ));
#88 = CARTESIAN_POINT('',(-3.884602343494,78.914535082717,2.221735657707
    ));
#89 = CARTESIAN_POINT('',(-3.876444310559,79.007766643881,2.235861033273
    ));
#90 = CARTESIAN_POINT('',(-3.870961805742,79.101503952694,2.245285741791
    ));
#91 = CARTESIAN_POINT('',(-3.868219874826,79.195500857996,2.25));
#92 = CARTESIAN_POINT('',(-3.868219874826,79.384089761797,2.25));
#93 = CARTESIAN_POINT('',(-3.870994239898,79.478640566189,2.245229970331
    ));
#94 = CARTESIAN_POINT('',(-3.876541563785,79.57292716539,2.235693853426)
  );
#95 = CARTESIAN_POINT('',(-3.884795257052,79.666699199085,2.221401628748
    ));
#96 = CARTESIAN_POINT('',(-3.895627413895,79.759698882049,2.202373717901
    ));
#97 = CARTESIAN_POINT('',(-3.920800214553,79.934737697903,2.157209521033
    ));
#98 = CARTESIAN_POINT('',(-3.934700301,80.016963564657,2.131938717969));
#99 = CARTESIAN_POINT('',(-3.950425208024,80.098201689217,2.102844264023
    ));
#100 = CARTESIAN_POINT('',(-3.967818826368,80.178302786791,
    2.069930801088));
#101 = CARTESIAN_POINT('',(-3.98669982698,80.257104300016,2.033199516061
    ));
#102 = CARTESIAN_POINT('',(-4.045414588204,80.482254508184,
    1.915134650454));
#103 = CARTESIAN_POINT('',(-4.08863313794,80.624592300486,1.82371676791)
  );
#104 = CARTESIAN_POINT('',(-4.135206049086,80.760678898261,
    1.718197869765));
#105 = CARTESIAN_POINT('',(-4.183626433251,80.889394905329,
    1.598110669728));
#106 = CARTESIAN_POINT('',(-4.232072845527,81.009080021645,
    1.462893858744));
#107 = CARTESIAN_POINT('',(-4.308141283761,81.187132448528,
    1.214862321407));
#108 = CARTESIAN_POINT('',(-4.337118974145,81.252344740956,
    1.110913864737));
#109 = CARTESIAN_POINT('',(-4.364555813002,81.312062241638,
    1.000378976423));
#110 = CARTESIAN_POINT('',(-4.389708961316,81.365375038887,
    0.883464341171));
#111 = CARTESIAN_POINT('',(-4.411823924905,81.411344063366,
    0.760475458992));
#112 = CARTESIAN_POINT('',(-4.444360775886,81.478093779607,
    0.532335633502));
#113 = CARTESIAN_POINT('',(-4.456294122393,81.502215067577,0.42948479036
    ));
#114 = CARTESIAN_POINT('',(-4.465556135097,81.520737262394,
    0.324016018894));
#115 = CARTESIAN_POINT('',(-4.471846890084,81.533245768561,
    0.216726972217));
#116 = CARTESIAN_POINT('',(-4.475,81.539518062323,0.108444109699));
#117 = CARTESIAN_POINT('',(-4.475,81.539518062323,-0.171196611636));
#118 = CARTESIAN_POINT('',(-4.467140682222,81.523886903534,
    -0.341160354903));
#119 = CARTESIAN_POINT('',(-4.45163506776,81.493047207868,
    -0.507251181971));
#120 = CARTESIAN_POINT('',(-4.429394688425,81.448207020475,
    -0.666907149741));
#121 = CARTESIAN_POINT('',(-4.401979620595,81.391352493919,
    -0.817802446914));
#122 = CARTESIAN_POINT('',(-4.357601793476,81.296067633583,
    -1.020293082392));
#123 = CARTESIAN_POINT('',(-4.343243817517,81.264842681149,
    -1.080713230757));
#124 = CARTESIAN_POINT('',(-4.328293378745,81.231846334038,
    -1.139244875475));
#125 = CARTESIAN_POINT('',(-4.312861257977,81.197212594597,
    -1.195875821632));
#126 = CARTESIAN_POINT('',(-4.29705391793,81.161067638955,
    -1.250600250098));
#127 = CARTESIAN_POINT('',(-4.259893013108,81.074326223924,
    -1.372652250411));
#128 = CARTESIAN_POINT('',(-4.238338669441,81.022720590189,
    -1.438623691595));
#129 = CARTESIAN_POINT('',(-4.216522476972,80.968944561015,
    -1.501378161336));
#130 = CARTESIAN_POINT('',(-4.194640082467,80.913197919285,
    -1.560964425579));
#131 = CARTESIAN_POINT('',(-4.172870526502,80.855649451369,
    -1.617433284828));
#132 = CARTESIAN_POINT('',(-4.125304514471,80.724610951164,
    -1.735616280585));
#133 = CARTESIAN_POINT('',(-4.09963422522,80.650325664979,
    -1.795895001573));
#134 = CARTESIAN_POINT('',(-4.07466339714,80.573841059292,-1.85174662362
    ));
#135 = CARTESIAN_POINT('',(-4.050663888771,80.49537734625,
    -1.903233401159));
#136 = CARTESIAN_POINT('',(-4.027883176223,80.415116663736,
    -1.950404292389));
#137 = CARTESIAN_POINT('',(-3.986319947475,80.255562046057,
    -2.033946913037));
#138 = CARTESIAN_POINT('',(-3.967390413916,80.176433849399,
    -2.07075427554));
#139 = CARTESIAN_POINT('',(-3.949962467243,80.095998251731,
    -2.10371442476));
#140 = CARTESIAN_POINT('',(-3.934219332821,80.014419799169,
    -2.132826001248));
#141 = CARTESIAN_POINT('',(-3.920318560181,79.931849605047,
    -2.15808419169));
#142 = CARTESIAN_POINT('',(-3.895310907676,79.756973490298,
    -2.202929632908));
#143 = CARTESIAN_POINT('',(-3.884602343494,79.66450104193,
    -2.221735657707));
#144 = CARTESIAN_POINT('',(-3.876444310559,79.571269480766,
    -2.235861033273));
#145 = CARTESIAN_POINT('',(-3.870961805742,79.477532171953,
    -2.245285741791));
#146 = CARTESIAN_POINT('',(-3.868219874826,79.38353526665,-2.25));
#147 = CARTESIAN_POINT('',(-3.868219874826,79.19494636285,-2.25));
#148 = CARTESIAN_POINT('',(-3.870994239898,79.100395558457,
    -2.245229970331));
#149 = CARTESIAN_POINT('',(-3.876541563785,79.006108959257,
    -2.235693853426));
#150 = CARTESIAN_POINT('',(-3.884795257052,78.912336925562,
    -2.221401628748));
#151 = CARTESIAN_POINT('',(-3.895627413895,78.819337242598,
    -2.202373717901));
#152 = CARTESIAN_POINT('',(-3.920800214553,78.644298426744,
    -2.157209521033));
#153 = CARTESIAN_POINT('',(-3.934700301,78.56207255999,-2.131938717969)
  );
#154 = CARTESIAN_POINT('',(-3.950425208024,78.48083443543,
    -2.102844264023));
#155 = CARTESIAN_POINT('',(-3.967818826368,78.400733337856,
    -2.069930801088));
#156 = CARTESIAN_POINT('',(-3.98669982698,78.32193182463,-2.033199516061
    ));
#157 = CARTESIAN_POINT('',(-4.045414588204,78.096781616462,
    -1.915134650454));
#158 = CARTESIAN_POINT('',(-4.08863313794,77.95444382416,-1.82371676791)
  );
#159 = CARTESIAN_POINT('',(-4.135206049086,77.818357226386,
    -1.718197869766));
#160 = CARTESIAN_POINT('',(-4.183626433251,77.689641219318,
    -1.598110669728));
#161 = CARTESIAN_POINT('',(-4.232072845527,77.569956103002,
    -1.462893858744));
#162 = CARTESIAN_POINT('',(-4.294878183187,77.422948447118,
    -1.258108473185));
#163 = CARTESIAN_POINT('',(-4.311162100427,77.385639420908,
    -1.202094603837));
#164 = CARTESIAN_POINT('',(-4.327058968014,77.349915258581,
    -1.144068069501));
#165 = CARTESIAN_POINT('',(-4.342453705998,77.315912023,-1.084034398221)
  );
#166 = CARTESIAN_POINT('',(-4.3572263566,77.283774601966,-1.02200615526)
  );
#167 = CARTESIAN_POINT('',(-4.401975946509,77.187691519459,
    -0.817819211322));
#168 = CARTESIAN_POINT('',(-4.429392630248,77.130833047819,
    -0.666922745057));
#169 = CARTESIAN_POINT('',(-4.451635529665,77.085987984494,
    -0.507255743605));
#170 = CARTESIAN_POINT('',(-4.467141744033,77.055147114619,
    -0.34115294795));
#171 = CARTESIAN_POINT('',(-4.475,77.039518062323,-0.171185074651));
#172 = CARTESIAN_POINT('',(-4.475,77.039518062323,0.));
#173 = CYLINDRICAL_SURFACE('',#174,4.475);
#174 = AXIS2_PLACEMENT_3D('',#175,#176,#177);
#175 = CARTESIAN_POINT('',(0.,0.,0.));
#176 = DIRECTION('',(0.,1.,0.));
#177 = DIRECTION('',(1.,0.,0.));
#178 = ADVANCED_FACE('',(#179,#182),#193,.F.);
#179 = FACE_BOUND('',#180,.F.);
#180 = EDGE_LOOP('',(#181));
#181 = ORIENTED_EDGE('',*,*,#48,.T.);
#182 = FACE_BOUND('',#183,.F.);
#183 = EDGE_LOOP('',(#184));
#184 = ORIENTED_EDGE('',*,*,#185,.F.);
#185 = EDGE_CURVE('',#186,#186,#188,.T.);
#186 = VERTEX_POINT('',#187);
#187 = CARTESIAN_POINT('',(2.975,114.57903612464,0.));
#188 = CIRCLE('',#189,2.975);
#189 = AXIS2_PLACEMENT_3D('',#190,#191,#192);
#190 = CARTESIAN_POINT('',(0.,114.57903612464,0.));
#191 = DIRECTION('',(0.,-1.,0.));
#192 = DIRECTION('',(1.,0.,0.));
#193 = PLANE('',#194);
#194 = AXIS2_PLACEMENT_3D('',#195,#196,#197);
#195 = CARTESIAN_POINT('',(0.,114.57903612464,0.));
#196 = DIRECTION('',(-0.,-1.,-0.));
#197 = DIRECTION('',(1.,0.,0.));
#198 = ADVANCED_FACE('',(#199),#218,.F.);
#199 = FACE_BOUND('',#200,.F.);
#200 = EDGE_LOOP('',(#201,#202,#210,#217));
#201 = ORIENTED_EDGE('',*,*,#57,.F.);
#202 = ORIENTED_EDGE('',*,*,#203,.T.);
#203 = EDGE_CURVE('',#58,#204,#206,.T.);
#204 = VERTEX_POINT('',#205);
#205 = CARTESIAN_POINT('',(3.,77.039518062323,-9.264780128681E-17));
#206 = LINE('',#207,#208);
#207 = CARTESIAN_POINT('',(-4.5,77.039518062323,-9.264780128681E-17));
#208 = VECTOR('',#209,1.);
#209 = DIRECTION('',(1.,0.,0.));
#210 = ORIENTED_EDGE('',*,*,#211,.T.);
#211 = EDGE_CURVE('',#204,#204,#212,.T.);
#212 = CIRCLE('',#213,2.25);
#213 = AXIS2_PLACEMENT_3D('',#214,#215,#216);
#214 = CARTESIAN_POINT('',(3.,79.289518062323,-9.264780128681E-17));
#215 = DIRECTION('',(-1.,0.,0.));
#216 = DIRECTION('',(0.,-1.,0.));
#217 = ORIENTED_EDGE('',*,*,#203,.F.);
#218 = CYLINDRICAL_SURFACE('',#219,2.25);
#219 = AXIS2_PLACEMENT_3D('',#220,#221,#222);
#220 = CARTESIAN_POINT('',(-4.5,79.289518062323,-9.264780128681E-17));
#221 = DIRECTION('',(-1.,0.,0.));
#222 = DIRECTION('',(0.,-1.,0.));
#223 = ADVANCED_FACE('',(#224),#243,.T.);
#224 = FACE_BOUND('',#225,.F.);
#225 = EDGE_LOOP('',(#226,#227,#235,#242));
#226 = ORIENTED_EDGE('',*,*,#185,.T.);
#227 = ORIENTED_EDGE('',*,*,#228,.T.);
#228 = EDGE_CURVE('',#186,#229,#231,.T.);
#229 = VERTEX_POINT('',#230);
#230 = CARTESIAN_POINT('',(2.975,116.57496362565,0.));
#231 = LINE('',#232,#233);
#232 = CARTESIAN_POINT('',(2.975,114.57903612464,0.));
#233 = VECTOR('',#234,1.);
#234 = DIRECTION('',(0.,1.,0.));
#235 = ORIENTED_EDGE('',*,*,#236,.F.);
#236 = EDGE_CURVE('',#229,#229,#237,.T.);
#237 = CIRCLE('',#238,2.975);
#238 = AXIS2_PLACEMENT_3D('',#239,#240,#241);
#239 = CARTESIAN_POINT('',(0.,116.57496362565,0.));
#240 = DIRECTION('',(0.,-1.,0.));
#241 = DIRECTION('',(1.,0.,0.));
#242 = ORIENTED_EDGE('',*,*,#228,.F.);
#243 = CYLINDRICAL_SURFACE('',#244,2.975);
#244 = AXIS2_PLACEMENT_3D('',#245,#246,#247);
#245 = CARTESIAN_POINT('',(0.,114.57903612464,0.));
#246 = DIRECTION('',(0.,1.,0.));
#247 = DIRECTION('',(1.,0.,0.));
#248 = ADVANCED_FACE('',(#249),#252,.F.);
#249 = FACE_BOUND('',#250,.T.);
#250 = EDGE_LOOP('',(#251));
#251 = ORIENTED_EDGE('',*,*,#211,.T.);
#252 = PLANE('',#253);
#253 = AXIS2_PLACEMENT_3D('',#254,#255,#256);
#254 = CARTESIAN_POINT('',(3.,79.289518062323,1.206168786061E-16));
#255 = DIRECTION('',(1.,0.,0.));
#256 = DIRECTION('',(0.,0.,1.));
#257 = ADVANCED_FACE('',(#258,#261),#272,.T.);
#258 = FACE_BOUND('',#259,.F.);
#259 = EDGE_LOOP('',(#260));
#260 = ORIENTED_EDGE('',*,*,#236,.T.);
#261 = FACE_BOUND('',#262,.F.);
#262 = EDGE_LOOP('',(#263));
#263 = ORIENTED_EDGE('',*,*,#264,.F.);
#264 = EDGE_CURVE('',#265,#265,#267,.T.);
#265 = VERTEX_POINT('',#266);
#266 = CARTESIAN_POINT('',(4.347432720831,116.57496362565,0.));
#267 = CIRCLE('',#268,4.347432720831);
#268 = AXIS2_PLACEMENT_3D('',#269,#270,#271);
#269 = CARTESIAN_POINT('',(0.,116.57496362565,0.));
#270 = DIRECTION('',(0.,-1.,0.));
#271 = DIRECTION('',(1.,0.,0.));
#272 = PLANE('',#273);
#273 = AXIS2_PLACEMENT_3D('',#274,#275,#276);
#274 = CARTESIAN_POINT('',(0.,116.57496362565,0.));
#275 = DIRECTION('',(-0.,-1.,-0.));
#276 = DIRECTION('',(1.,0.,0.));
#277 = ADVANCED_FACE('',(#278),#297,.T.);
#278 = FACE_BOUND('',#279,.F.);
#279 = EDGE_LOOP('',(#280,#281,#289,#296));
#280 = ORIENTED_EDGE('',*,*,#264,.T.);
#281 = ORIENTED_EDGE('',*,*,#282,.T.);
#282 = EDGE_CURVE('',#265,#283,#285,.T.);
#283 = VERTEX_POINT('',#284);
#284 = CARTESIAN_POINT('',(4.347432720831,121.57496362565,0.));
#285 = LINE('',#286,#287);
#286 = CARTESIAN_POINT('',(4.347432720831,116.57496362565,0.));
#287 = VECTOR('',#288,1.);
#288 = DIRECTION('',(0.,1.,0.));
#289 = ORIENTED_EDGE('',*,*,#290,.F.);
#290 = EDGE_CURVE('',#283,#283,#291,.T.);
#291 = CIRCLE('',#292,4.347432720831);
#292 = AXIS2_PLACEMENT_3D('',#293,#294,#295);
#293 = CARTESIAN_POINT('',(0.,121.57496362565,0.));
#294 = DIRECTION('',(0.,-1.,0.));
#295 = DIRECTION('',(1.,0.,0.));
#296 = ORIENTED_EDGE('',*,*,#282,.F.);
#297 = CYLINDRICAL_SURFACE('',#298,4.347432720831);
#298 = AXIS2_PLACEMENT_3D('',#299,#300,#301);
#299 = CARTESIAN_POINT('',(0.,116.57496362565,0.));
#300 = DIRECTION('',(0.,1.,0.));
#301 = DIRECTION('',(1.,0.,0.));
#302 = ADVANCED_FACE('',(#303),#322,.T.);
#303 = FACE_BOUND('',#304,.F.);
#304 = EDGE_LOOP('',(#305,#306,#314,#321));
#305 = ORIENTED_EDGE('',*,*,#290,.T.);
#306 = ORIENTED_EDGE('',*,*,#307,.T.);
#307 = EDGE_CURVE('',#283,#308,#310,.T.);
#308 = VERTEX_POINT('',#309);
#309 = CARTESIAN_POINT('',(1.25,125.5,0.));
#310 = LINE('',#311,#312);
#311 = CARTESIAN_POINT('',(4.347432720831,121.57496362565,0.));
#312 = VECTOR('',#313,1.);
#313 = DIRECTION('',(-0.619486544166,0.785007274869,0.));
#314 = ORIENTED_EDGE('',*,*,#315,.F.);
#315 = EDGE_CURVE('',#308,#308,#316,.T.);
#316 = CIRCLE('',#317,1.25);
#317 = AXIS2_PLACEMENT_3D('',#318,#319,#320);
#318 = CARTESIAN_POINT('',(0.,125.5,0.));
#319 = DIRECTION('',(0.,-1.,0.));
#320 = DIRECTION('',(1.,0.,0.));
#321 = ORIENTED_EDGE('',*,*,#307,.F.);
#322 = CONICAL_SURFACE('',#323,4.347432720831,0.66808845646);
#323 = AXIS2_PLACEMENT_3D('',#324,#325,#326);
#324 = CARTESIAN_POINT('',(0.,121.57496362565,0.));
#325 = DIRECTION('',(-0.,-1.,-0.));
#326 = DIRECTION('',(1.,0.,0.));
#327 = ADVANCED_FACE('',(#328),#347,.T.);
#328 = FACE_BOUND('',#329,.F.);
#329 = EDGE_LOOP('',(#330,#331,#339,#346));
#330 = ORIENTED_EDGE('',*,*,#315,.T.);
#331 = ORIENTED_EDGE('',*,*,#332,.T.);
#332 = EDGE_CURVE('',#308,#333,#335,.T.);
#333 = VERTEX_POINT('',#334);
#334 = CARTESIAN_POINT('',(1.25,132.5,0.));
#335 = LINE('',#336,#337);
#336 = CARTESIAN_POINT('',(1.25,125.5,0.));
#337 = VECTOR('',#338,1.);
#338 = DIRECTION('',(0.,1.,0.));
#339 = ORIENTED_EDGE('',*,*,#340,.F.);
#340 = EDGE_CURVE('',#333,#333,#341,.T.);
#341 = CIRCLE('',#342,1.25);
#342 = AXIS2_PLACEMENT_3D('',#343,#344,#345);
#343 = CARTESIAN_POINT('',(0.,132.5,0.));
#344 = DIRECTION('',(0.,-1.,0.));
#345 = DIRECTION('',(1.,0.,0.));
#346 = ORIENTED_EDGE('',*,*,#332,.F.);
#347 = CYLINDRICAL_SURFACE('',#348,1.25);
#348 = AXIS2_PLACEMENT_3D('',#349,#350,#351);
#349 = CARTESIAN_POINT('',(0.,125.5,0.));
#350 = DIRECTION('',(0.,1.,0.));
#351 = DIRECTION('',(1.,0.,0.));
#352 = ADVANCED_FACE('',(#353),#356,.F.);
#353 = FACE_BOUND('',#354,.F.);
#354 = EDGE_LOOP('',(#355));
#355 = ORIENTED_EDGE('',*,*,#340,.T.);
#356 = PLANE('',#357);
#357 = AXIS2_PLACEMENT_3D('',#358,#359,#360);
#358 = CARTESIAN_POINT('',(0.,132.5,0.));
#359 = DIRECTION('',(-0.,-1.,-0.));
#360 = DIRECTION('',(1.,0.,0.));
#361 = ( GEOMETRIC_REPRESENTATION_CONTEXT(3) 
GLOBAL_UNCERTAINTY_ASSIGNED_CONTEXT((#365)) GLOBAL_UNIT_ASSIGNED_CONTEXT
((#362,#363,#364)) REPRESENTATION_CONTEXT('Context #1',
  '3D Context with UNIT and UNCERTAINTY') );
#362 = ( LENGTH_UNIT() NAMED_UNIT(*) SI_UNIT(.MILLI.,.METRE.) );
#363 = ( NAMED_UNIT(*) PLANE_ANGLE_UNIT() SI_UNIT($,.RADIAN.) );
#364 = ( NAMED_UNIT(*) SI_UNIT($,.STERADIAN.) SOLID_ANGLE_UNIT() );
#365 = UNCERTAINTY_MEASURE_WITH_UNIT(LENGTH_MEASURE(1.E-07),#362,
  'distance_accuracy_value','confusion accuracy');
#366 = PRODUCT_RELATED_PRODUCT_CATEGORY('part',$,(#7));
#367 = MECHANICAL_DESIGN_GEOMETRIC_PRESENTATION_REPRESENTATION('',(#368)
  ,#361);
#368 = STYLED_ITEM('color',(#369),#15);
#369 = PRESENTATION_STYLE_ASSIGNMENT((#370,#376));
#370 = SURFACE_STYLE_USAGE(.BOTH.,#371);
#371 = SURFACE_SIDE_STYLE('',(#372));
#372 = SURFACE_STYLE_FILL_AREA(#373);
#373 = FILL_AREA_STYLE('',(#374));
#374 = FILL_AREA_STYLE_COLOUR('',#375);
#375 = COLOUR_RGB('',0.447058818107,0.474509808674,0.501960817233);
#376 = CURVE_STYLE('',#377,POSITIVE_LENGTH_MEASURE(0.1),#378);
#377 = DRAUGHTING_PRE_DEFINED_CURVE_FONT('continuous');
#378 = COLOUR_RGB('',9.803921802644E-02,9.803921802644E-02,
  9.803921802644E-02);
ENDSEC;
END-ISO-10303-21;
